<?xml version="1.0" encoding="UTF-8"?>
<svg id="settings_button" xmlns="http://www.w3.org/2000/svg" viewBox="0 0 800 800">
  <defs>
    <style>
      .cls-1 {
        fill: #010101;
      }
    </style>
    <script>
      // select elements you want to interact with first
      let theBadge = document.querySelector('#settings_button');

      // functions always go in the middle
      function logMyId() {
        console.log(this.id);
      }

      // event handling at the botton
      theBadge.addEventListener('click', logMyId);

    </script>
  </defs>
  <path class="cls-1" d="m780.74,375.53c-2.07-13.77-12.59-24.61-26.01-27.1l-.19-.03-51.74-7.35c-14.28-2.89-25.76-12.75-30.85-25.79l-.1-.29-19.37-47.13c-2.35-5.06-3.75-10.97-3.75-17.24,0-8.55,2.58-16.51,7.03-23.12l-.1.16,31.42-41.92c3.43-4.87,5.47-10.94,5.47-17.49,0-7.41-2.64-14.22-7.03-19.53l.03.06-34.41-34.51c-5.25-4.33-12.05-6.93-19.46-6.93-6.55,0-12.59,2.05-17.57,5.52l-41.83,31.41c-6.46,4.39-14.41,7-22.96,7-6.27,0-12.18-1.4-17.49-3.88l.25.1-47.13-19.37c-13.36-5.12-23.25-16.6-26.05-30.63l-.03-.25-7.28-51.87c-2.51-13.58-13.26-24.04-26.75-26.14l-.19-.03s-8.27-.8-24.68-.8-24.46.83-24.46.83c-13.77,2.04-24.58,12.5-27.13,25.92l-.03.19-7.41,51.81c-2.89,14.28-12.75,25.73-25.79,30.78l-.29.1-47.13,19.37c-5.06,2.39-10.97,3.75-17.24,3.75-8.55,0-16.51-2.61-23.12-7.06l.16.1-41.92-31.42c-4.9-3.47-10.97-5.53-17.55-5.53-7.41,0-14.18,2.64-19.49,7l.06-.03-34.31,34.57c-4.33,5.25-6.96,12.02-6.96,19.43,0,6.52,2.05,12.56,5.52,17.54l31.41,41.9c4.39,6.46,7,14.44,7,22.99,0,6.23-1.4,12.15-3.85,17.46l.1-.25-19.43,47.13c-5.15,13.33-16.6,23.22-30.63,26.05l-.25.03-51.87,7.31c-13.58,2.61-23.98,13.42-25.98,27l-.03.19s-.92,8.14-.92,24.46.86,24.49.86,24.49c2.04,13.74,12.5,24.58,25.89,27.1l.19.03,51.81,7.38c14.28,2.89,25.76,12.72,30.85,25.79l.1.29,19.43,47.13c2.35,5.06,3.75,10.97,3.75,17.21,0,8.59-2.61,16.54-7.09,23.15l.1-.16-31.42,41.92c-4.48,4.99-7.22,11.64-7.22,18.89,0,4.64,1.11,9,3.08,12.88l-.06-.16c5.57,6.9,21.53,23.92,21.56,23.98.03.06,5.44,4.96,11.93,10.94,6.49,5.98,33.14,14.28,43.63,6.46l41.88-31.42c6.46-4.36,14.41-6.96,22.96-6.96,6.27,0,12.18,1.4,17.49,3.88l-.25-.1,47.13,19.37c13.36,5.12,23.25,16.6,26.05,30.63l.03.25,7.28,51.71c2.54,13.61,13.36,24.07,26.9,26.14l.19.03s8.17.8,24.55.8,24.49-.86,24.49-.86c13.68-2.13,24.42-12.59,26.9-25.95l.03-.19,7.44-51.81c2.86-14.28,12.72-25.76,25.79-30.78l.29-.1,47.13-19.43c5.06-2.35,10.97-3.75,17.21-3.75,8.59,0,16.54,2.61,23.15,7.09l-.16-.1,41.92,31.42c4.9,3.43,10.97,5.47,17.52,5.47,7.44,0,14.25-2.64,19.56-7.03l-.06.03,34.41-34.47c4.33-5.28,6.96-12.08,6.96-19.49,0-6.52-2.02-12.56-5.48-17.54l-31.41-41.9c-4.36-6.46-6.93-14.41-6.93-22.96,0-6.27,1.37-12.18,3.85-17.49l-.1.25,19.37-47.13c5.18-13.36,16.66-23.22,30.69-26.05l.25-.03,51.74-7.38c13.61-2.54,24.11-13.36,26.14-26.9l.03-.19s.86-7.92.86-24.33-.86-24.49-.86-24.49Zm-380.74,133.24c-60.07,0-108.77-48.7-108.77-108.77s48.7-108.77,108.77-108.77,108.77,48.7,108.77,108.77-48.7,108.77-108.77,108.77Z"/>
</svg>