<?xml version="1.0" encoding="UTF-8"?>
<svg id="sound_icon" xmlns="http://www.w3.org/2000/svg" viewBox="0 0 800 800">
  <defs>
    <style>
      .cls-1 {
        fill: #010101;
      }
    </style>
    <script>
      // select elements you want to interact with first
      let theBadge = document.querySelector('#sound_icon');

      // functions always go in the middle
      function logMyId() {
        console.log(this.id);
      }

      // event handling at the botton
      theBadge.addEventListener('click', logMyId);

    </script>
  </defs>
  <path id="internals" class="cls-1" d="m701.71,279.91H93.39c-14.76,0-26.73,11.97-26.73,26.73v289.68c0,14.76,11.97,26.73,26.73,26.73h608.32c14.76,0,26.73-11.97,26.73-26.73v-289.68c0-14.76-11.97-26.73-26.73-26.73Zm-463.48,235.91c-35.53,0-64.34-28.81-64.34-64.34s28.81-64.34,64.34-64.34,64.34,28.81,64.34,64.34-28.81,64.34-64.34,64.34Zm218.04-64.34c0,11-8.92,19.91-19.91,19.91h-77.62c-11,0-19.91-8.92-19.91-19.91h0c0-11,8.92-19.91,19.91-19.91h77.62c11,0,19.91,8.92,19.91,19.91h0Zm100.6,64.34c-35.53,0-64.34-28.81-64.34-64.34s28.81-64.34,64.34-64.34,64.34,28.81,64.34,64.34-28.81,64.34-64.34,64.34Z"/>
  <g id="handle">
    <rect x="208.49" y="226.27" width="156" height="39.83" transform="translate(-90.17 274.68) rotate(-45)"/>
    <rect x="430.62" y="226.27" width="156" height="39.83" transform="translate(694.19 779.91) rotate(-135)"/>
    <rect x="327.74" y="176.94" width="139.91" height="39.83" transform="translate(795.4 393.72) rotate(180)"/>
  </g>
  <g id="knobs">
    <g>
      <rect x="597.72" y="252.33" width="23.49" height="55.15" rx="11.74" ry="11.74"/>
      <rect x="629.84" y="252.33" width="23.49" height="55.15" rx="11.74" ry="11.74"/>
      <rect x="661.96" y="252.33" width="23.49" height="55.15" rx="11.74" ry="11.74"/>
    </g>
    <rect x="126.53" y="262.34" width="23.49" height="55.15" rx="11.74" ry="11.74"/>
  </g>
</svg>